<svg width="136" height="136" viewBox="0 0 136 136" fill="none" xmlns="http://www.w3.org/2000/svg">
<path d="M11.9004 54.5986C17.4796 54.3053 25.4914 54.5368 31.2325 54.5352L68.7796 54.5427L95.3957 54.5328C99.2328 54.5328 108.474 54.2141 111.869 55.1154C112.453 56.7901 104.786 70.7874 103.507 73.332C101.438 77.1207 100.998 80.1447 97.3469 82.2633C90.5644 82.6357 80.7336 82.3365 73.7774 82.3328L29.1573 82.3277C25.5217 77.1196 21.9216 70.6764 18.3518 65.2836C17.2346 63.5958 12.4665 56.0394 11.9004 54.5986Z" fill="#111111"/>
<path opacity="0.8" d="M28.7484 88.5548L58.4566 88.4996C63.0251 88.4988 70.6068 88.285 74.9004 88.7508C72.3561 94.2157 68.9257 100.203 65.7866 105.414C64.9154 106.859 63.5308 107.845 62.0646 108.703C61.3705 108.959 60.3184 109.304 59.5817 109.319C50.1147 109.513 40.6247 109.383 31.1523 109.421C26.4396 109.441 21.606 109.503 16.9004 109.344C17.8288 106.696 27.188 89.5374 28.7484 88.5548Z" fill="#111111"/>
<path opacity="0.5" d="M71.7006 31.5677C84.6683 31.3371 97.7561 31.6979 110.736 31.5437C114.617 31.4975 119.7 31.2902 123.473 31.6973C125.42 33.8526 120.138 40.5122 119.133 43.2368C117.309 48.184 114.778 47.4525 110.373 47.3581L74.369 47.3718C71.6962 47.3723 60.2837 47.5513 58.1211 47.0706L57.9004 46.5882C57.9188 45.3689 58.7841 43.8368 59.3419 42.7446C62.5049 36.5504 63.8445 31.9701 71.7006 31.5677Z" fill="#111111"/>
</svg>
