<svg width="953" height="175" viewBox="0 0 953 175" fill="none" xmlns="http://www.w3.org/2000/svg">
<path d="M30.7812 62.1689C38.9827 61.7499 50.76 62.0807 59.1994 62.0784L114.394 62.0891L153.519 62.0749C159.16 62.0749 172.745 61.6197 177.735 62.9072C178.594 65.2996 167.322 85.2957 165.443 88.931C162.401 94.3433 161.755 98.6634 156.388 101.69C146.417 102.222 131.966 101.794 121.74 101.789L56.1488 101.782C50.8046 94.3418 45.5124 85.1372 40.2649 77.4332C38.6225 75.0221 31.6135 64.2271 30.7812 62.1689Z" fill="#FEFEFE"/>
<path opacity="0.8" d="M55.5533 112.116L100.116 112.032C106.968 112.031 118.341 111.705 124.781 112.415C120.965 120.742 115.819 129.866 111.111 137.806C109.804 140.009 107.727 141.512 105.527 142.818C104.486 143.208 102.908 143.734 101.803 143.757C87.6028 144.052 73.3678 143.855 59.1591 143.913C52.09 143.943 44.8397 144.038 37.7812 143.796C39.1739 139.76 53.2127 113.614 55.5533 112.116Z" fill="white"/>
<path opacity="0.5" d="M117.482 27.1331C136.933 26.7873 156.565 27.3284 176.034 27.0971C181.856 27.0279 189.481 26.7169 195.14 27.3276C198.061 30.5606 190.137 40.5499 188.63 44.6368C185.894 52.0576 182.098 50.9604 175.49 50.8188L121.484 50.8393C117.475 50.8401 100.356 51.1085 97.1122 50.3876L96.7812 49.664C96.8089 47.835 98.1068 45.5368 98.9435 43.8985C103.688 34.6073 105.697 27.7368 117.482 27.1331Z" fill="white"/>
<path d="M473.047 71.2976C482.479 70.6126 493.97 71.0532 503.582 71.0486C504.496 71.048 509.186 73.0072 510.921 73.3142L511.279 71.4636C513.072 70.7671 520.023 71.051 522.325 71.073C522.51 90.4075 522.319 109.797 522.412 129.13C522.452 137.287 518.358 146.7 509.139 147.316C494.52 148.293 478.327 148.41 463.649 147.785L463.62 137.79C472.41 137.571 504.263 139.549 509.336 135.356C511.961 131.282 511.228 127.005 511.106 122.092C510.169 122.566 509.214 122.991 508.237 123.364C502.176 125.614 475.816 125.636 469.403 123.292C457.802 119.05 459.41 88.9341 462.735 79.6238C464.383 75.0075 468.571 72.8728 473.047 71.2976ZM506.3 81.823C499.285 80.4033 484.844 80.513 477.453 81.1443C470.207 85.2186 472.56 93.4059 472.052 100.666C471.757 104.878 472.249 113.482 477.771 114.42C485.764 115.428 497.943 115.607 505.808 114.496C507.63 113.685 509.862 112.597 510.337 110.488C511.592 104.9 513.789 83.3381 506.3 81.823Z" fill="#FEFEFE"/>
<path d="M350.001 71.0153C378.176 69.3419 378.616 77.486 378.097 101.816L328.498 101.915C328.483 102.544 328.474 103.174 328.474 103.803C328.328 118.032 337.491 115.156 348.807 114.988L376.869 115.029L376.923 124.675C366.328 124.674 333.314 126.546 325.239 122.934C322.204 121.577 319.702 119.503 318.497 116.341C315.843 109.376 315.559 85.9385 318.597 79.2995C320.613 74.8921 324.047 72.9838 328.418 71.3444C335.541 70.6554 343.15 71.4223 350.001 71.0153ZM360.974 81.0065C352.445 80.7452 341.151 80.4088 332.743 81.0505C327.774 84.2546 328.29 87.1909 328.323 92.654L363.698 92.6325L365.872 92.4938C369.155 88.5086 365.471 81.1441 360.974 81.0065Z" fill="#FEFEFE"/>
<path d="M627.799 70.903C649.965 70.0621 647.773 85.9752 647.536 101.814C631.32 101.829 614.139 101.596 598.016 102.095C598.137 106.718 597.617 112.79 603.122 114.431C607.205 115.65 614.463 115.081 618.881 115.003L646.483 115.034L646.559 124.615C635.524 124.698 602.283 126.654 593.903 122.606C590.769 121.092 588.681 117.464 587.617 114.292C585.235 107.22 585.061 86.0016 588.433 79.2556C590.746 74.615 593.724 72.9198 598.524 71.3405C607.934 70.4983 618.332 71.2626 627.799 70.903ZM630.297 81.0905C621.564 80.9073 610.98 80.2098 602.306 81.0925C597.564 84.6121 597.94 86.9341 597.992 92.6433L632.615 92.6452L635.38 92.5495C637.537 90.0699 636.282 81.2168 630.297 81.0905Z" fill="#FEFEFE"/>
<path d="M867.627 71.3268C877.128 70.2887 887.844 71.3752 897.427 70.9596C919.57 69.9994 916.991 86.1676 916.766 101.817L867.517 101.978C867.482 103.291 867.465 104.603 867.459 105.917C867.505 117.761 879.812 115.116 888.353 115L915.852 114.981L915.997 124.793C905.57 124.725 873.358 126.448 865.331 123.249C862.012 121.927 858.957 119.558 857.563 116.191C854.926 109.834 854.753 86.3372 857.407 79.9264C859.368 75.1905 863.133 73.1662 867.627 71.3268ZM903.175 82.8161C896.536 79.3397 879.043 80.4349 871.524 81.1159C866.933 84.7496 867.355 86.9592 867.447 92.6364H902.961L905.13 92.5045C906.859 90.2651 905.685 84.1294 903.175 82.8161Z" fill="#FEFEFE"/>
<path d="M703.878 51.316C708.322 51.0257 713.308 51.1058 717.8 51.0808C724.428 60.1316 733.444 70.5092 740.7 79.2349C748.349 69.813 756.068 60.4539 763.85 51.1586C768.501 51.0216 773.307 51.1958 777.969 51.2997L747.451 87.7318C757.243 99.526 768.613 112.455 777.958 124.42L777.081 125.016C772.77 125.152 768.597 125.046 764.286 124.953C756.844 115.749 748.44 104.938 740.679 96.2374C732.987 104.998 724.46 115.815 716.992 124.963C712.441 125.196 707.556 124.973 702.969 124.852C713.159 112.345 723.493 99.9842 733.981 87.7724C724.721 76.8589 712.282 62.6353 703.878 51.316Z" fill="#FEFEFE"/>
<path d="M234.843 50.2884L235.593 50.2733C245.532 50.1069 255.906 50.2379 265.836 50.249C285.807 50.2704 306.792 46.4342 306.968 74.2574C307.097 94.7736 295.7 100.295 277.062 99.3485C266.769 99.0754 255.329 99.2853 244.994 99.3201C244.996 103.318 245.247 121.742 244.562 124.562L243.353 125.081L233.078 125.025L233.013 88.8101C249.898 88.3781 267.316 89.3093 284.196 88.49C293.371 87.5165 294.122 83.1979 294.887 75.6334C296.737 57.3525 279.597 61.0506 265.866 61.1063L233.116 61.0889C233.061 58.4657 232.632 52.8918 233.554 50.7122L234.843 50.2884Z" fill="#FEFEFE"/>
<path d="M390.051 70.333L392.938 70.31C404.221 70.222 416.949 70.3619 427.99 70.0997C448.632 69.6102 450.231 78.6098 449.941 97.2551C449.807 105.936 449.935 116.133 449.958 125.01L438.521 124.822L438.468 90.9105L438.474 90.3885C438.625 80.2905 432.096 79.9728 423.891 80.1163C416.512 80.245 409.069 80.3478 401.685 80.4375C401.365 94.9149 401.629 110.462 401.638 125.02C398.082 125.166 393.75 125.009 390.123 124.96C389.816 107.021 390.065 88.3329 390.051 70.333Z" fill="#FEFEFE"/>
<path d="M785.197 71.142C788.82 71.0307 792.828 71.1072 796.485 71.0979C796.468 79.1692 794.816 106.803 798.285 112.584C798.989 113.761 800.249 114.28 801.51 114.595C805.825 115.676 826.379 115.759 830.087 113.443C834.317 108.741 832.602 79.5089 832.517 71.0927L843.765 71.1721L843.788 80.6502C843.742 86.4633 843.765 92.2763 843.85 98.0889C843.901 104.861 844.929 114.848 839.853 120.056C831.359 127.882 815.903 123.956 805.257 124.963C796.758 125.705 786.799 122.73 785.777 112.596C784.454 99.4226 785.141 84.4421 785.197 71.142Z" fill="#FEFEFE"/>
<path d="M557.586 50.1709C564.692 49.9657 571.781 50.157 578.893 50.2904L578.887 59.9847C572.496 60.1506 561.243 58.1483 556.504 62.317C554.41 64.1587 554.841 68.5489 554.881 71.254L578.969 71.3462L578.928 81.1478L554.922 81.2017L554.876 102.266L554.817 125.081L543.326 124.894C543.408 110.327 543.332 95.7583 543.105 81.1925L532.073 80.9941L531.969 71.3242L543.315 71.2105C543.227 59.0795 543.762 51.805 557.586 50.1709Z" fill="#FEFEFE"/>
<path d="M660.039 71.0837L671.709 71.0808C671.721 87.6208 672.377 108.993 671.557 125.081L660.063 124.967C659.869 107.105 660.033 88.966 660.039 71.0837Z" fill="#FEFEFE"/>
<path d="M659.969 51.1489C663.342 51.004 667.502 51.1331 670.93 51.1478L670.969 63.0539L659.98 63.0808L659.969 51.1489Z" fill="#FEFEFE"/>
</svg>
